<svg xmlns="http://www.w3.org/2000/svg" viewBox="0 0 300 40" fill="#ffffff">
  <!-- A -->
  <path d="M0 38L12 2h6l12 36h-6l-3-9H9l-3 9H0zm10.5-14.5h9L15 8.5l-4.5 15z"/>
  <!-- R -->
  <path d="M36 38V2h14c3 0 5.3 1 7 3s2.5 4.2 2.5 6.8c0 3.5-1.5 6.2-4.5 8L61 38h-7l-5.5-17H42v17h-6zm6-22v10h8c1.8 0 3.2-.6 4.2-1.8 1-1.2 1.5-2.7 1.5-4.2 0-1.6-.5-3-1.5-4.2-1-1.2-2.4-1.8-4.2-1.8h-8z"/>
  <!-- T -->
  <path d="M70 8V2h24v6h-9v30h-6V8h-9z"/>
  <!-- B -->
  <path d="M102 38V2h13c3 0 5.3.9 7 2.7 1.7 1.8 2.5 3.8 2.5 6.1 0 2.8-1.2 5-3.5 6.5 2.8 1.5 4.2 3.9 4.2 7.2 0 2.5-.9 4.7-2.7 6.5-1.8 1.8-4.2 2.7-7 2.7h-.5-13zm6-22v7h7c1.4 0 2.5-.5 3.4-1.4.9-.9 1.3-2 1.3-3.3 0-1-.4-2-1.3-2.8-.9-.8-2-1.3-3.4-1.3h-1.5-5.5zm0 13v8h7.5c1.5 0 2.8-.5 3.8-1.5s1.5-2.2 1.5-3.6-.5-2.5-1.5-3.4-2.3-1.3-3.8-1.3h-1-6.5z"/>
  <!-- A -->
  <path d="M134 38l12-36h6l12 36h-6l-3-9h-12l-3 9h-6zm10.5-14.5h9l-4.5-15-4.5 15z"/>
  <!-- T -->
  <path d="M172 8V2h24v6h-9v30h-6V8h-9z"/>
</svg>
