<svg xmlns="http://www.w3.org/2000/svg" width="1024" height="1024" viewBox="0 0 1024 1024">
<g>
<path d="M 635.77 521.11 C630.79,523.35 629.21,523.50 606.75,523.82 L 583.00 524.16 L 583.00 447.84 L 605.75 448.19 C627.22,448.52 628.77,448.67 633.26,450.88 C638.92,453.68 642.55,457.70 643.96,462.78 C646.28,471.16 644.54,478.82 639.37,482.97 C637.16,484.74 636.85,485.39 638.00,485.80 C640.99,486.84 645.82,492.68 646.89,496.55 C649.97,507.63 645.94,516.53 635.77,521.11 ZM 271.00 501.00 L 271.00 524.00 L 256.00 524.00 L 256.00 447.81 L 278.25 448.21 C295.02,448.52 301.53,449.00 304.67,450.17 C314.91,453.96 320.01,461.88 319.98,473.95 C319.96,479.08 319.37,482.78 318.14,485.51 C316.07,490.06 310.17,495.67 306.48,496.59 C305.12,496.94 304.01,497.51 304.03,497.86 C304.04,498.21 308.29,504.12 313.46,511.00 L 322.88 523.50 L 314.77 523.79 C310.31,523.95 306.12,523.88 305.45,523.62 C304.78,523.36 300.70,518.17 296.37,512.08 L 288.52 501.00 ZM 757.02 521.25 C755.73,523.90 755.40,524.00 747.83,524.00 L 739.97 524.00 L 741.40 520.75 C742.19,518.96 749.93,501.86 758.59,482.75 L 774.35 448.00 L 782.01 448.00 C789.26,448.00 789.74,448.14 790.84,450.55 C791.48,451.95 792.00,453.55 792.00,454.10 C792.00,455.39 800.04,474.34 800.87,475.00 C801.22,475.27 801.65,476.17 801.83,477.00 C802.02,477.83 806.63,488.37 812.08,500.43 C817.54,512.49 822.00,522.73 822.00,523.18 C822.00,523.63 818.70,524.00 814.67,524.00 L 807.35 524.00 L 795.02 496.25 C788.24,480.99 782.33,468.09 781.89,467.59 C781.24,466.86 779.29,470.02 778.54,473.00 C778.47,473.27 777.71,474.85 776.84,476.50 C775.25,479.53 758.61,517.07 758.45,518.00 C758.40,518.28 757.75,519.74 757.02,521.25 ZM 91.52 520.75 C90.03,524.00 90.02,524.00 82.52,524.00 C78.38,524.00 75.00,523.66 75.01,523.25 C75.01,522.84 82.59,505.85 91.84,485.50 L 108.66 448.50 L 115.87 448.21 L 123.08 447.91 L 125.93 454.21 C141.73,489.22 147.34,501.61 150.29,508.00 C154.08,516.18 157.00,523.00 157.00,523.66 C157.00,523.90 153.60,523.95 149.45,523.79 L 141.91 523.50 L 130.87 499.00 C124.79,485.52 119.17,473.01 118.37,471.18 C117.57,469.36 116.45,468.02 115.89,468.20 C115.32,468.39 109.94,479.56 103.93,493.02 C97.92,506.49 92.33,518.96 91.52,520.75 ZM 458.00 472.00 L 458.00 524.00 L 443.00 524.00 L 443.00 472.00 L 420.00 472.00 L 420.00 468.98 C420.00,468.05 420.00,467.38 420.30,466.90 C421.12,465.61 424.08,465.69 434.96,465.96 L 435.03 465.97 C443.04,466.17 443.57,466.06 443.72,464.09 C443.87,462.08 443.43,462.00 431.94,462.00 L 420.00 462.00 L 420.00 448.00 L 481.00 448.00 L 481.00 462.00 L 469.00 462.00 C457.67,462.00 457.00,462.11 457.00,464.00 C457.00,465.89 457.67,466.00 469.00,466.00 L 481.00 466.00 L 481.00 472.00 ZM 943.00 472.00 L 943.00 524.00 L 929.00 524.00 L 929.00 472.00 L 904.00 472.00 L 904.00 466.00 L 916.50 466.00 C928.61,466.00 929.00,465.93 929.00,463.86 C929.00,461.79 928.71,461.74 921.19,462.36 C916.90,462.72 911.27,462.73 908.69,462.37 L 904.00 461.73 L 904.00 448.00 L 966.00 448.00 L 966.00 462.00 L 955.00 462.00 C944.67,462.00 944.00,462.12 944.00,464.00 C944.00,465.88 944.67,466.00 955.00,466.00 L 966.00 466.00 L 966.00 472.00 ZM 598.50 462.50 L 597.96 510.15 L 612.57 509.82 C627.17,509.50 627.18,509.50 629.59,506.69 C633.41,502.25 632.27,495.36 627.34,493.11 C626.00,492.50 619.75,492.00 613.45,492.00 L 602.00 492.00 L 602.00 479.00 L 612.87 479.00 C622.19,479.00 624.09,478.72 626.25,477.02 C631.19,473.14 630.55,465.30 625.13,463.05 C623.50,462.38 617.68,462.05 610.46,462.22 ZM 137.00 523.68 C137.00,523.85 127.55,524.00 116.00,524.00 C104.45,524.00 95.00,523.85 95.00,523.67 C95.00,523.49 98.04,516.82 101.75,508.85 C105.46,500.88 110.07,490.69 112.00,486.19 C113.93,481.70 115.72,478.02 116.00,478.02 C116.28,478.02 119.84,485.55 123.93,494.76 C128.02,503.97 132.63,514.17 134.18,517.43 C135.73,520.69 137.00,523.50 137.00,523.68 ZM 802.00 523.62 C802.00,523.83 792.78,524.00 781.50,524.00 C770.22,524.00 761.00,523.79 761.00,523.54 C761.00,523.29 764.85,514.40 769.56,503.79 C770.79,501.01 771.90,498.53 772.88,496.30 C779.55,481.26 780.94,478.11 781.70,478.26 C782.01,478.32 782.21,478.94 782.63,479.51 C783.38,480.54 784.00,481.72 784.00,482.12 C784.00,482.53 788.05,491.95 793.00,503.05 C797.95,514.16 802.00,523.42 802.00,523.62 ZM 271.64 480.85 L 272.28 487.00 L 283.74 487.00 C296.67,487.00 301.10,485.64 303.54,480.91 C305.44,477.24 305.40,471.67 303.43,467.87 C301.06,463.27 297.03,462.12 283.17,462.07 L 271.00 462.03 L 271.00 468.37 C271.00,471.85 271.29,477.47 271.64,480.85 Z" fill="rgb(18,18,18)"/>
<path d="M 0.00 0.00 L 1024.00 0.00 L 1024.00 1024.00 L 0.00 1024.00 ZM 579.50 525.35 C580.88,526.74 583.41,526.98 595.32,526.90 C603.27,526.85 611.70,526.24 614.50,525.52 C619.14,524.33 618.17,524.23 601.25,524.12 L 590.62 524.05 L 606.75 523.82 C619.89,523.63 625.88,523.50 629.59,522.98 C626.37,523.89 626.49,525.49 630.19,525.52 C631.67,525.54 633.21,525.88 633.61,526.27 C634.72,527.39 639.20,527.14 638.50,526.00 C638.16,525.45 638.32,525.00 638.85,525.00 C639.39,525.00 639.70,523.88 639.55,522.50 C639.38,520.92 639.78,520.00 640.64,520.00 C641.39,520.00 642.00,519.59 642.00,519.09 C642.00,518.60 642.86,518.41 643.91,518.69 C646.36,519.33 647.60,516.89 647.83,511.00 L 648.01 506.50 L 647.30 508.43 C648.10,505.32 648.11,501.84 647.28,498.10 C647.52,498.53 647.62,497.32 647.81,494.02 C647.98,491.01 647.75,488.42 647.29,488.26 C646.48,487.99 646.49,487.17 647.56,475.66 C647.89,472.02 647.67,469.31 646.97,468.46 C646.20,467.53 646.16,466.54 646.84,465.33 C647.47,464.19 647.49,462.91 646.88,461.78 C646.28,460.66 646.28,460.00 646.88,460.00 C648.97,460.00 647.15,456.88 642.82,453.07 C637.15,448.08 634.03,446.77 631.76,448.43 C630.88,449.08 630.62,449.46 631.29,449.99 C627.81,448.62 623.89,448.47 605.75,448.19 L 583.00 447.84 L 583.00 485.88 C583.00,452.80 582.81,447.91 581.56,448.95 C580.77,449.61 580.35,450.75 580.63,451.49 C580.92,452.23 580.34,453.03 579.32,453.30 C577.79,453.69 577.84,453.79 579.64,453.88 C581.77,454.00 581.77,454.04 581.91,486.94 C582.03,517.47 581.91,519.95 580.27,520.91 C579.30,521.48 578.95,521.96 579.50,521.98 C580.05,522.01 579.90,522.41 579.18,522.87 C578.11,523.55 578.17,524.03 579.50,525.35 ZM 264.50 527.25 C266.39,527.69 271.01,527.14 271.91,526.36 C272.14,526.17 272.23,521.06 272.11,515.01 C271.99,508.95 272.29,504.00 272.78,504.00 C273.27,504.00 273.67,503.33 273.67,502.50 C273.67,501.67 273.07,501.00 272.33,501.00 C271.30,501.00 271.00,503.58 271.00,512.50 L 271.00 501.00 L 288.52 501.00 L 294.54 509.49 C289.47,502.50 288.37,501.56 287.96,503.25 C287.66,504.47 287.59,506.68 287.81,508.14 C288.12,510.27 288.89,510.94 291.56,511.45 C295.68,512.22 295.72,512.29 296.47,519.05 C296.80,522.05 297.32,525.31 297.62,526.31 C298.10,527.88 299.04,528.05 304.83,527.64 C308.50,527.38 312.91,526.86 314.63,526.49 C316.55,526.06 318.02,526.22 318.44,526.90 C319.35,528.37 325.30,528.30 326.80,526.80 C329.94,523.66 327.09,519.20 322.81,520.56 C321.77,520.89 321.37,521.17 321.51,521.68 L 319.34 518.80 C319.44,518.93 319.50,519.00 319.50,519.00 C319.54,519.00 319.55,516.09 319.52,512.53 C319.46,505.47 318.49,503.75 314.58,503.75 C312.45,503.75 312.01,503.29 312.03,501.12 C312.07,498.36 314.18,494.82 315.64,495.08 C317.96,495.50 319.68,494.85 319.83,493.50 C320.14,490.76 320.12,489.52 319.75,487.78 C319.44,486.31 318.71,485.15 318.29,485.14 C319.06,483.32 319.56,481.07 319.80,478.28 C319.59,482.53 319.88,482.44 321.25,480.96 C323.20,478.87 323.71,474.44 321.87,475.58 C321.22,475.98 320.91,475.76 321.15,475.06 C321.37,474.40 321.95,473.92 322.44,474.01 C322.92,474.11 323.73,473.45 324.23,472.55 C324.90,471.35 324.34,470.01 322.07,467.43 C320.38,465.50 319.00,464.37 319.00,464.91 C319.00,465.44 319.34,466.09 319.75,466.35 C320.16,466.60 320.27,470.42 320.00,474.83 C319.98,475.10 319.97,475.36 319.95,475.61 C319.97,475.07 319.98,474.52 319.98,473.95 C320.00,465.59 317.56,459.22 312.66,454.84 C315.08,456.77 316.86,458.98 317.54,461.12 C318.35,463.67 319.81,462.64 319.44,459.77 C319.05,456.72 315.42,449.91 314.62,450.72 C314.26,451.07 312.74,450.47 311.24,449.39 C309.73,448.31 307.94,447.50 307.25,447.59 C306.56,447.68 303.64,447.84 300.75,447.96 L 295.50 448.17 L 300.66 449.28 C296.60,448.73 289.90,448.43 278.25,448.21 L 256.00 447.81 L 256.00 486.03 C256.00,452.69 255.82,448.13 254.50,448.64 C253.20,449.14 253.00,454.28 253.00,486.48 C253.00,526.69 253.04,527.01 258.19,525.66 C259.40,525.34 260.87,525.47 261.45,525.93 C262.03,526.40 263.40,526.99 264.50,527.25 ZM 86.53 526.38 C87.62,527.48 91.06,527.68 103.20,527.32 C111.62,527.08 119.70,526.42 121.16,525.85 C123.09,525.11 124.46,525.18 126.16,526.10 C128.55,527.39 138.79,528.16 139.44,527.09 C139.77,526.56 145.72,526.63 156.00,527.28 C159.44,527.50 159.50,527.43 159.60,523.50 C159.66,521.30 159.82,519.05 159.97,518.50 C160.12,517.95 160.18,516.33 160.12,514.90 C160.01,512.58 159.60,512.31 156.12,512.31 L 152.26 512.31 C151.64,510.94 150.98,509.49 150.29,508.00 C149.95,507.26 149.58,506.45 149.16,505.53 C150.21,507.66 150.96,508.98 151.13,508.98 C152.53,509.02 152.70,504.97 151.40,502.46 C150.64,501.00 150.07,498.61 150.15,497.15 C150.39,492.37 150.01,489.00 149.25,489.12 C146.99,489.48 144.96,488.87 145.50,488.00 C145.84,487.45 145.65,487.00 145.08,487.00 C144.51,487.00 144.20,485.65 144.39,484.00 C144.58,482.35 144.35,481.00 143.87,481.00 C143.39,481.00 143.05,480.66 143.12,480.25 C143.18,479.84 143.18,478.07 143.12,476.33 C143.02,473.65 142.47,472.98 139.59,472.03 C135.82,470.79 134.60,468.89 134.93,464.77 C135.17,461.76 132.79,457.59 131.50,458.76 C131.05,459.17 130.96,458.74 131.29,457.80 C131.72,456.59 131.48,456.26 130.45,456.66 C129.15,457.16 128.52,455.96 128.90,453.71 C129.16,452.10 127.00,449.23 125.16,448.75 C123.61,448.35 124.85,451.80 131.65,466.88 C132.97,469.80 134.41,473.00 135.87,476.23 C133.10,470.10 129.82,462.84 125.93,454.21 L 123.08 447.91 L 115.87 448.21 L 108.66 448.50 L 96.70 474.80 C98.80,470.17 100.80,465.76 102.33,462.41 C108.40,449.07 108.62,448.35 106.37,448.78 C104.81,449.08 104.00,449.92 104.00,451.25 C104.00,453.39 100.27,457.28 98.98,456.48 C97.86,455.80 96.86,458.79 96.30,464.50 C95.73,470.21 94.91,471.55 91.46,472.42 C88.93,473.06 88.03,474.99 90.25,475.02 C91.18,475.03 91.15,475.25 90.16,475.88 C89.34,476.40 88.71,479.00 88.56,482.49 C88.36,486.88 87.86,488.50 86.45,489.29 C85.14,490.02 84.50,489.99 84.22,489.17 C83.61,487.34 80.00,489.74 80.00,491.98 C80.00,493.02 80.45,494.16 81.00,494.50 C81.55,494.84 81.99,495.65 81.98,496.31 C81.98,497.02 81.58,496.90 81.00,496.00 C80.47,495.17 80.02,494.91 80.02,495.42 C80.01,495.93 80.79,497.24 81.75,498.34 C83.11,499.90 83.17,500.22 82.00,499.80 C80.83,499.38 80.46,500.21 80.32,503.63 C80.22,506.03 80.49,508.00 80.93,508.00 C81.27,508.00 83.50,503.68 86.33,497.66 C83.87,503.11 81.66,508.02 79.86,512.05 L 76.97 512.39 C75.29,512.59 73.74,512.93 73.52,513.15 C73.30,513.37 72.98,516.46 72.81,520.02 L 72.50 526.50 L 76.38 526.82 C78.52,526.99 80.74,526.66 81.33,526.07 C82.80,524.60 84.87,524.73 86.53,526.38 ZM 738.41 527.23 C740.18,528.43 742.75,528.11 744.36,526.50 C746.32,524.53 750.73,524.58 752.74,526.60 C754.06,527.92 755.73,528.08 762.42,527.52 C766.86,527.15 771.82,526.87 773.43,526.90 C775.04,526.92 776.97,526.44 777.72,525.82 C778.72,524.98 780.81,524.98 785.79,525.82 C798.18,527.90 805.26,528.11 808.35,526.50 C809.92,525.68 811.72,525.33 812.35,525.73 C813.60,526.50 815.03,526.88 819.20,527.53 C822.90,528.11 825.07,525.79 824.14,522.25 C823.74,520.74 823.46,518.04 823.52,516.25 C823.58,514.46 823.30,513.00 822.91,513.00 C822.51,513.00 822.44,512.04 822.74,510.87 C823.25,508.93 821.67,507.10 819.27,506.84 C818.85,506.80 817.52,506.39 816.32,505.93 C814.31,505.17 814.44,505.76 818.07,513.65 C820.23,518.35 822.00,522.60 822.00,523.10 C822.00,523.11 822.00,523.12 821.99,523.14 C821.81,522.29 817.42,512.23 812.08,500.43 C811.75,499.70 811.43,498.98 811.11,498.27 C813.17,502.49 814.00,503.30 814.64,502.44 C816.28,500.25 815.58,491.90 813.63,490.47 C812.75,489.83 812.27,489.06 812.56,488.77 C812.85,488.48 812.02,487.97 810.72,487.64 C807.80,486.91 805.83,483.06 807.16,480.69 C807.79,479.56 807.74,479.00 807.01,479.00 C806.40,479.00 805.99,478.44 806.07,477.75 C806.42,475.09 805.94,474.00 804.43,474.00 C802.57,474.00 799.83,471.51 800.71,470.62 C801.05,470.28 800.73,470.00 800.00,470.00 C799.27,470.00 798.95,469.72 799.30,469.37 C799.65,469.02 799.45,467.84 798.87,466.75 C798.23,465.56 798.20,465.01 798.79,465.37 C799.38,465.74 799.72,464.38 799.64,461.95 C799.49,457.50 797.62,455.60 794.86,457.07 C793.89,457.60 793.50,457.93 793.75,459.04 C792.72,456.46 792.00,454.49 792.00,454.10 C792.00,453.55 791.48,451.95 790.84,450.55 C789.74,448.14 789.26,448.00 782.01,448.00 L 774.35 448.00 L 771.93 453.35 C772.63,451.65 773.12,450.38 773.23,449.83 C773.38,449.12 772.44,448.39 771.14,448.19 C769.75,447.98 769.03,448.24 769.40,448.83 C769.73,449.38 769.57,449.98 769.04,450.16 C768.50,450.35 767.95,451.96 767.82,453.75 C767.58,456.98 767.32,457.20 763.50,457.40 C762.17,457.47 761.60,458.09 761.80,459.27 C761.96,460.25 761.50,461.65 760.76,462.38 C760.02,463.12 759.52,465.02 759.63,466.61 C759.74,468.20 759.87,470.96 759.92,472.75 C759.96,474.54 760.39,476.00 760.86,476.00 C761.23,476.00 763.86,470.84 766.61,465.07 L 759.62 480.48 L 755.87 480.84 C753.75,481.04 752.24,481.58 752.52,482.04 C752.80,482.49 752.56,483.16 751.98,483.52 C751.38,483.88 751.22,485.12 751.62,486.33 C753.53,492.30 752.54,496.00 749.03,496.00 C746.71,496.00 743.49,499.57 744.98,500.49 C745.64,500.90 745.74,501.65 745.24,502.34 C744.76,502.98 744.45,504.17 744.54,505.00 C744.62,505.83 744.76,507.29 744.85,508.25 C745.04,510.41 745.71,510.49 746.99,508.37 C746.46,509.54 745.95,510.65 745.48,511.69 C745.54,511.24 745.14,511.38 744.30,511.81 C743.31,512.32 741.71,512.61 740.75,512.46 C739.79,512.30 738.69,512.69 738.30,513.32 C737.29,514.96 737.19,518.00 738.17,517.39 C739.20,516.76 739.27,518.40 738.25,519.42 C737.08,520.58 737.20,526.42 738.41,527.23 ZM 458.00 472.00 L 481.00 472.00 L 481.00 469.00 C481.00,470.88 481.51,472.00 482.38,472.00 C483.91,472.00 486.16,469.69 485.92,468.36 C485.83,467.88 485.87,467.16 486.01,466.75 C486.14,466.34 486.36,465.55 486.50,465.00 C486.64,464.45 486.86,463.89 487.00,463.75 C487.72,463.04 487.60,459.00 486.86,459.00 C486.39,459.00 485.98,457.54 485.96,455.75 C485.93,452.16 484.18,448.64 482.25,448.25 C481.35,448.07 481.00,449.93 481.00,455.00 L 481.00 448.00 L 420.00 448.00 L 420.00 454.85 C420.00,448.07 419.91,447.78 418.24,449.29 C416.76,450.62 416.56,452.03 416.99,457.86 C417.28,461.70 417.24,465.89 416.92,467.17 C416.60,468.45 416.50,469.99 416.71,470.58 C417.53,472.94 420.00,471.62 420.00,468.83 C420.00,467.19 420.03,466.38 422.00,466.03 C421.07,466.20 420.57,466.47 420.30,466.90 C420.02,467.35 420.00,467.98 420.00,468.83 L 420.00 472.00 L 443.00 472.00 L 443.00 521.53 C443.00,519.75 442.58,519.22 441.50,519.64 C440.15,520.16 439.30,525.97 440.42,527.08 C441.30,527.97 461.34,526.96 462.54,525.97 C463.24,525.39 463.66,524.14 463.48,523.21 C463.30,522.27 463.12,521.11 463.08,520.63 C463.03,520.16 462.12,520.00 461.05,520.28 C459.79,520.61 458.95,520.21 458.67,519.14 C458.43,518.24 458.18,518.96 458.12,520.75 L 458.00 524.00 ZM 934.27 527.34 C934.69,527.44 937.05,527.35 939.52,527.16 L 944.00 526.80 L 943.77 499.15 L 943.54 472.00 L 966.00 472.00 L 966.00 469.13 C966.00,470.71 966.45,472.00 967.00,472.00 L 967.07 472.00 C967.32,472.00 967.50,472.00 967.65,471.92 C968.15,471.67 968.19,470.52 968.41,465.50 C968.54,462.75 968.30,459.27 967.89,457.76 C967.48,456.26 967.49,454.81 967.91,454.56 C969.07,453.84 968.50,449.67 967.17,449.22 C966.36,448.95 966.00,450.83 966.00,455.42 L 966.00 448.00 L 904.00 448.00 L 904.00 461.73 L 908.69 462.37 C911.27,462.73 916.90,462.72 921.19,462.36 C925.40,462.01 927.35,461.88 928.24,462.19 C927.91,462.50 927.43,463.20 927.00,464.00 C926.46,465.02 926.30,465.55 926.57,465.80 C924.80,465.99 921.76,466.00 916.50,466.00 L 905.56 466.00 C906.42,466.00 906.86,465.59 906.56,465.09 C906.25,464.59 905.43,464.26 904.75,464.37 C902.16,464.76 901.00,466.21 901.00,469.06 C901.00,471.01 901.51,472.00 902.50,472.00 L 904.00 472.00 L 929.00 472.00 L 929.00 522.16 L 928.74 516.75 L 928.40 509.50 L 928.20 517.73 C928.18,518.47 928.16,519.14 928.14,519.76 C928.04,523.16 927.99,524.72 928.74,525.59 C929.50,526.47 931.08,526.65 934.27,527.34 ZM 598.50 462.50 L 610.46 462.22 C613.40,462.15 616.10,462.16 618.39,462.25 C617.86,462.55 618.78,463.07 621.00,463.50 C623.79,464.04 624.30,464.52 624.46,466.77 C624.54,467.74 624.94,469.09 625.36,469.77 C625.79,470.46 625.63,471.00 625.00,471.00 C624.39,471.00 624.16,471.44 624.49,471.99 C624.86,472.58 624.41,472.71 623.39,472.32 C622.16,471.85 621.90,472.02 622.46,472.93 C623.07,473.92 622.80,473.96 621.19,473.10 L 620.97 472.98 C619.87,472.40 619.29,472.08 618.73,472.13 C618.06,472.18 617.43,472.76 616.00,474.00 C614.46,475.34 614.16,476.03 615.10,476.08 C616.12,476.14 616.16,476.29 615.24,476.66 C614.55,476.94 614.24,477.58 614.55,478.09 C614.84,478.56 615.64,478.84 616.70,478.98 C615.58,478.99 614.31,479.00 612.87,479.00 L 602.00 479.00 L 605.25 478.98 C607.72,478.97 608.14,478.74 607.00,478.00 C605.67,477.14 605.67,477.03 607.00,477.00 C608.33,476.97 608.33,476.86 607.00,476.00 C605.94,475.31 605.88,475.03 606.79,475.02 C607.79,475.00 607.81,474.72 606.88,473.72 C605.56,472.30 598.68,472.67 599.57,474.11 C599.87,474.60 599.68,475.00 599.15,475.00 C597.96,475.00 598.20,476.79 599.80,479.68 C601.20,482.23 601.37,488.87 600.08,490.91 C599.59,491.68 599.39,492.84 599.63,493.48 C599.89,494.15 601.34,494.46 603.04,494.21 C606.36,493.72 607.10,492.00 604.00,492.00 L 613.45 492.00 C616.54,492.00 619.61,492.12 622.10,492.31 C622.04,492.39 622.00,492.48 622.00,492.59 C622.00,493.95 625.79,497.88 626.47,497.22 C626.87,496.82 627.10,497.40 626.98,498.50 C626.63,501.77 626.97,502.59 628.00,501.00 C628.83,499.72 628.97,499.75 628.98,501.25 C629.00,503.24 628.56,503.37 626.15,502.08 C624.84,501.38 624.42,501.56 624.41,502.83 C624.40,503.75 624.06,505.77 623.65,507.33 C623.37,508.44 623.22,509.11 623.32,509.46 C621.06,509.64 617.72,509.71 612.57,509.82 L 597.96 510.15 ZM 271.64 480.85 C271.29,477.47 271.00,471.85 271.00,468.37 L 271.00 462.03 L 283.17 462.07 C285.14,462.08 286.91,462.11 288.50,462.17 L 292.71 464.10 C295.86,465.55 296.76,466.46 296.29,467.68 C295.90,468.70 296.06,469.08 296.72,468.67 C297.32,468.30 297.71,468.77 297.64,469.75 C297.54,471.00 298.47,471.63 301.00,472.00 C303.24,472.33 304.40,472.33 304.68,471.65 C305.25,474.83 304.88,478.34 303.54,480.91 C302.42,483.08 300.88,484.54 298.29,485.49 C298.52,485.39 298.73,485.28 298.93,485.18 C303.39,482.78 304.07,479.83 299.88,481.03 C298.08,481.55 297.28,481.79 296.46,481.90 C295.69,482.01 294.91,482.01 293.25,482.02 C291.11,482.03 290.83,482.24 292.00,483.00 C293.16,483.75 292.83,484.00 290.50,484.12 C287.88,484.25 287.81,484.33 289.91,484.73 C291.78,485.08 292.00,485.38 290.91,486.08 C290.36,486.42 290.20,486.67 290.33,486.83 C288.42,486.95 286.24,487.00 283.74,487.00 L 272.28 487.00 ZM 963.99 466.00 L 955.00 466.00 C944.67,466.00 944.00,465.88 944.00,464.00 C944.00,462.12 944.67,462.00 955.00,462.00 L 961.53 462.00 C957.96,462.00 957.18,462.30 957.64,463.51 C957.96,464.33 959.97,465.29 962.11,465.63 C962.88,465.76 963.49,465.87 963.99,466.00 ZM 927.68 490.25 C927.92,496.71 928.32,502.00 928.56,502.00 C928.80,502.00 929.00,495.25 929.00,487.00 C929.00,473.86 928.80,472.00 927.39,472.00 C926.08,472.00 925.91,472.62 926.51,475.25 C926.91,477.04 927.44,483.79 927.68,490.25 ZM 271.00 463.55 C271.00,464.79 271.73,464.95 274.75,464.39 C282.93,462.86 283.68,462.17 277.25,462.09 C272.24,462.02 271.00,462.31 271.00,463.55 ZM 903.00 456.93 C903.00,458.07 903.22,459.00 903.50,459.00 C903.78,459.00 904.00,456.43 904.00,453.29 C904.00,448.05 903.87,447.71 902.40,449.17 C901.15,450.42 901.04,451.21 901.90,452.82 C902.51,453.95 903.00,455.80 903.00,456.93 ZM 943.00 472.00 L 943.53 472.00 L 943.25 497.75 L 943.00 520.93 ZM 598.00 508.03 C598.00,509.32 598.68,510.00 599.97,510.00 C602.19,510.00 601.79,507.52 599.42,506.61 C598.49,506.25 598.00,506.74 598.00,508.03 ZM 795.94 464.35 C796.88,466.28 797.82,467.85 798.23,468.11 C798.75,468.45 799.13,469.01 799.09,469.36 C798.98,470.12 798.96,470.80 799.02,471.40 C798.12,469.43 797.01,466.88 795.94,464.35 ZM 305.30 523.52 L 304.56 523.50 L 298.79 515.42 C301.88,519.63 304.50,522.90 305.30,523.52 ZM 75.05 523.10 C75.02,523.06 75.00,523.01 75.00,522.97 C75.00,522.40 76.13,519.71 77.51,516.99 L 78.85 514.34 C76.69,519.20 75.31,522.39 75.05,523.10 ZM 638.54 519.66 C641.52,517.88 643.81,515.64 645.38,513.03 C644.70,514.32 643.94,515.51 643.35,516.17 C642.30,517.32 640.56,518.56 638.54,519.66 ZM 322.28 523.52 C321.73,523.93 319.57,523.96 314.44,523.80 C314.55,523.80 314.66,523.80 314.77,523.79 ZM 644.23 463.85 C646.20,470.78 644.82,478.59 639.37,482.97 C644.32,479.00 646.13,471.81 644.23,463.85 ZM 626.38 509.03 C628.12,508.14 629.83,506.47 630.89,504.73 C630.55,505.42 630.12,506.08 629.59,506.69 C628.54,507.92 627.94,508.61 626.38,509.03 ZM 311.59 508.46 C312.85,510.16 314.06,511.78 315.12,513.20 L 313.46 511.00 C308.29,504.12 304.04,498.21 304.03,497.86 C304.02,497.80 304.05,497.73 304.11,497.66 C304.11,498.07 307.40,502.83 311.59,508.46 ZM 318.00 485.80 C318.00,485.81 318.00,485.82 318.00,485.83 C318.00,486.87 316.17,489.20 313.93,491.40 C315.62,489.63 317.11,487.64 318.00,485.80 ZM 624.68 462.90 C624.85,462.95 625.00,463.00 625.13,463.05 C627.32,463.96 628.72,465.78 629.30,467.88 C628.59,465.77 626.98,463.94 624.68,462.90 ZM 631.80 499.48 C631.25,496.62 629.55,494.11 627.34,493.11 C629.93,494.29 631.48,496.76 631.80,499.48 ZM 740.53 522.73 L 740.99 521.53 C741.49,520.22 742.79,517.39 743.92,515.16 C742.54,518.21 741.65,520.20 741.40,520.75 ZM 303.47 467.94 C302.56,466.21 300.92,464.74 298.91,463.71 C301.12,464.60 302.43,465.92 303.43,467.87 C303.44,467.89 303.46,467.91 303.47,467.94 ZM 641.76 488.55 C644.01,490.81 646.18,493.90 646.72,495.99 C645.89,493.63 643.86,490.69 641.76,488.55 ZM 626.25 477.02 C625.07,477.94 623.97,478.45 621.71,478.72 C623.54,478.38 625.27,477.79 626.25,477.02 ZM 800.41 474.27 C801.09,474.97 801.61,475.80 801.57,476.14 C801.57,476.14 801.57,476.15 801.57,476.16 C801.36,475.63 801.10,475.18 800.87,475.00 C800.79,474.93 800.63,474.68 800.41,474.27 ZM 306.31 496.64 C305.23,497.09 304.39,497.47 304.16,497.61 C304.48,497.29 305.31,496.91 306.31,496.64 ZM 801.82 476.93 C802.10,477.70 802.62,478.99 803.31,480.64 C802.43,478.58 801.89,477.27 801.83,477.00 C801.83,476.98 801.82,476.95 801.82,476.93 ZM 156.46 522.01 C156.80,522.87 157.00,523.45 157.00,523.57 C157.00,523.58 157.00,523.59 156.99,523.59 C156.96,523.36 156.77,522.82 156.46,522.01 ZM 636.09 452.49 C636.69,452.87 637.26,453.28 637.80,453.72 C637.26,453.29 636.69,452.88 636.09,452.49 ZM 928.92 462.89 C928.99,463.14 929.00,463.46 929.00,463.86 L 929.00 463.94 C929.00,463.55 928.97,463.19 928.92,462.89 ZM 929.00 464.16 C928.98,464.48 928.94,464.74 928.82,464.96 C928.92,464.72 928.98,464.45 929.00,464.16 Z" fill="rgb(254,255,254)"/>
<path d="M 86.53 526.38 C84.87,524.73 82.80,524.60 81.33,526.07 C80.74,526.66 78.52,526.99 76.38,526.82 L 72.50 526.50 L 72.81 520.02 C72.98,516.46 73.30,513.37 73.52,513.15 C73.74,512.93 75.29,512.59 76.97,512.39 L 80.01 512.04 L 77.51 516.99 C76.13,519.71 75.00,522.40 75.00,522.97 C75.00,523.59 78.01,524.00 82.52,524.00 C90.02,524.00 90.03,524.00 91.52,520.75 C92.33,518.96 97.92,506.49 103.93,493.02 C109.94,479.56 115.32,468.39 115.89,468.20 C116.45,468.02 117.57,469.36 118.37,471.18 C119.17,473.01 124.79,485.52 130.87,499.00 L 141.91 523.50 L 149.45 523.79 C153.60,523.95 157.00,523.85 157.00,523.57 C157.00,523.29 155.93,520.64 154.62,517.68 L 152.25 512.31 L 156.12 512.31 C159.60,512.31 160.01,512.58 160.12,514.90 C160.18,516.33 160.12,517.95 159.97,518.50 C159.82,519.05 159.66,521.30 159.60,523.50 C159.50,527.43 159.44,527.50 156.00,527.28 C145.72,526.63 139.77,526.56 139.44,527.09 C138.79,528.16 128.55,527.39 126.16,526.10 C124.46,525.18 123.09,525.11 121.16,525.85 C119.70,526.42 111.62,527.08 103.20,527.32 C91.06,527.68 87.62,527.48 86.53,526.38 ZM 137.00 523.68 C137.00,523.50 135.73,520.69 134.18,517.43 C132.63,514.17 128.02,503.97 123.93,494.76 C119.84,485.55 116.28,478.02 116.00,478.02 C115.72,478.02 113.93,481.70 112.00,486.19 C110.07,490.69 105.46,500.88 101.75,508.85 C98.04,516.82 95.00,523.49 95.00,523.67 C95.00,523.85 104.45,524.00 116.00,524.00 C127.55,524.00 137.00,523.85 137.00,523.68 ZM 264.50 527.25 C263.40,526.99 262.03,526.40 261.45,525.93 C260.87,525.47 259.40,525.34 258.19,525.66 C253.04,527.01 253.00,526.69 253.00,486.48 C253.00,454.28 253.20,449.14 254.50,448.64 C255.82,448.13 256.00,452.69 256.00,486.03 L 256.00 524.00 L 263.50 524.00 L 271.00 524.00 L 271.00 512.50 C271.00,503.58 271.30,501.00 272.33,501.00 C273.07,501.00 273.67,501.67 273.67,502.50 C273.67,503.33 273.27,504.00 272.78,504.00 C272.29,504.00 271.99,508.95 272.11,515.01 C272.23,521.06 272.14,526.17 271.91,526.36 C271.01,527.14 266.39,527.69 264.50,527.25 ZM 297.62 526.31 C297.32,525.31 296.80,522.05 296.47,519.05 C295.72,512.29 295.68,512.22 291.56,511.45 C288.89,510.94 288.12,510.27 287.81,508.14 C287.59,506.68 287.66,504.47 287.96,503.25 C288.42,501.36 289.75,502.76 296.53,512.26 L 304.56 523.50 L 313.93 523.79 C322.05,524.04 323.15,523.88 322.10,522.62 C321.13,521.45 321.26,521.05 322.81,520.56 C327.09,519.20 329.94,523.66 326.80,526.80 C325.30,528.30 319.35,528.37 318.44,526.90 C318.02,526.22 316.55,526.06 314.63,526.49 C312.91,526.86 308.50,527.38 304.83,527.64 C299.04,528.05 298.10,527.88 297.62,526.31 ZM 440.42 527.08 C439.30,525.97 440.15,520.16 441.50,519.64 C442.58,519.22 443.00,519.75 443.00,521.53 C443.00,523.94 443.19,524.00 450.50,524.00 L 458.00 524.00 L 458.12 520.75 C458.18,518.96 458.43,518.24 458.67,519.14 C458.95,520.21 459.79,520.61 461.05,520.28 C462.12,520.00 463.03,520.16 463.08,520.63 C463.12,521.11 463.30,522.27 463.48,523.21 C463.66,524.14 463.24,525.39 462.54,525.97 C461.34,526.96 441.30,527.97 440.42,527.08 ZM 738.41 527.23 C737.20,526.42 737.08,520.58 738.25,519.42 C739.27,518.40 739.20,516.76 738.17,517.39 C737.19,518.00 737.29,514.96 738.30,513.32 C738.69,512.69 739.79,512.30 740.75,512.46 C741.71,512.61 743.31,512.32 744.30,511.81 C745.94,510.96 745.92,511.24 744.01,514.97 C742.87,517.22 741.50,520.18 740.99,521.53 L 740.05 524.00 L 747.86 524.00 C755.40,524.00 755.73,523.90 757.02,521.25 C757.75,519.74 758.40,518.28 758.45,518.00 C758.61,517.07 775.25,479.53 776.84,476.50 C777.71,474.85 778.47,473.27 778.54,473.00 C779.29,470.02 781.24,466.86 781.89,467.59 C782.33,468.09 788.24,480.99 795.02,496.25 L 807.35 524.00 L 814.67 524.00 C818.70,524.00 822.00,523.59 822.00,523.10 C822.00,522.60 820.23,518.35 818.07,513.65 C814.44,505.76 814.31,505.17 816.32,505.93 C817.52,506.39 818.85,506.80 819.27,506.84 C821.67,507.10 823.25,508.93 822.74,510.87 C822.44,512.04 822.51,513.00 822.91,513.00 C823.30,513.00 823.58,514.46 823.52,516.25 C823.46,518.04 823.74,520.74 824.14,522.25 C825.07,525.79 822.90,528.11 819.20,527.53 C815.03,526.88 813.60,526.50 812.35,525.73 C811.72,525.33 809.92,525.68 808.35,526.50 C805.26,528.11 798.18,527.90 785.79,525.82 C780.81,524.98 778.72,524.98 777.72,525.82 C776.97,526.44 775.04,526.92 773.43,526.90 C771.82,526.87 766.86,527.15 762.42,527.52 C755.73,528.08 754.06,527.92 752.74,526.60 C750.73,524.58 746.32,524.53 744.36,526.50 C742.75,528.11 740.18,528.43 738.41,527.23 ZM 802.00 523.62 C802.00,523.42 797.95,514.16 793.00,503.05 C788.05,491.95 784.00,482.53 784.00,482.12 C784.00,481.72 783.38,480.54 782.63,479.51 C781.04,477.34 782.55,474.53 769.56,503.79 C764.85,514.40 761.00,523.29 761.00,523.54 C761.00,523.79 770.22,524.00 781.50,524.00 C792.78,524.00 802.00,523.83 802.00,523.62 ZM 934.27 527.34 C927.39,525.84 927.98,526.77 928.20,517.73 L 928.40 509.50 L 928.74 516.75 L 929.09 524.00 L 936.03 524.00 L 942.97 524.00 L 943.25 497.75 L 943.53 471.50 L 943.77 499.15 L 944.00 526.80 L 939.52 527.16 C937.05,527.35 934.69,527.44 934.27,527.34 ZM 579.50 525.35 C578.17,524.03 578.11,523.55 579.18,522.87 C579.90,522.41 580.05,522.01 579.50,521.98 C578.95,521.96 579.30,521.48 580.27,520.91 C581.91,519.95 582.03,517.47 581.91,486.94 C581.77,454.04 581.77,454.00 579.64,453.88 C577.84,453.79 577.79,453.69 579.32,453.30 C580.34,453.03 580.92,452.23 580.63,451.49 C580.35,450.75 580.77,449.61 581.56,448.95 C582.81,447.91 583.00,452.80 583.00,485.88 L 583.00 524.00 L 601.25 524.12 C618.17,524.23 619.14,524.33 614.50,525.52 C611.70,526.24 603.27,526.85 595.32,526.90 C583.41,526.98 580.88,526.74 579.50,525.35 ZM 633.61 526.27 C633.21,525.88 631.67,525.54 630.19,525.52 C626.19,525.49 626.37,523.62 630.46,522.77 C635.06,521.81 640.99,518.77 643.35,516.17 C644.36,515.05 645.82,512.42 646.60,510.32 L 648.01 506.50 L 647.83 511.00 C647.60,516.89 646.36,519.33 643.91,518.69 C642.86,518.41 642.00,518.60 642.00,519.09 C642.00,519.59 641.39,520.00 640.64,520.00 C639.78,520.00 639.38,520.92 639.55,522.50 C639.70,523.88 639.39,525.00 638.85,525.00 C638.32,525.00 638.16,525.45 638.50,526.00 C639.20,527.14 634.72,527.39 633.61,526.27 ZM 311.59 508.46 C307.28,502.66 303.92,497.79 304.12,497.63 C304.33,497.47 305.96,496.76 307.74,496.06 C311.12,494.71 318.00,487.85 318.00,485.83 C318.00,484.22 319.31,485.68 319.75,487.78 C320.12,489.52 320.14,490.76 319.83,493.50 C319.68,494.85 317.96,495.50 315.64,495.08 C314.18,494.82 312.07,498.36 312.03,501.12 C312.01,503.29 312.45,503.75 314.58,503.75 C318.49,503.75 319.46,505.47 319.52,512.53 C319.55,516.09 319.54,519.00 319.50,519.00 C319.46,519.00 315.90,514.26 311.59,508.46 ZM 598.00 508.03 C598.00,506.74 598.49,506.25 599.42,506.61 C601.79,507.52 602.19,510.00 599.97,510.00 C598.68,510.00 598.00,509.32 598.00,508.03 ZM 623.65 507.33 C624.06,505.77 624.40,503.75 624.41,502.83 C624.42,501.56 624.84,501.38 626.15,502.08 C628.56,503.37 629.00,503.24 628.98,501.25 C628.97,499.75 628.83,499.72 628.00,501.00 C626.97,502.59 626.63,501.77 626.98,498.50 C627.10,497.40 626.87,496.82 626.47,497.22 C625.79,497.88 622.00,493.95 622.00,492.59 C622.00,491.64 624.70,491.91 627.34,493.11 C630.05,494.35 632.00,497.85 632.00,501.49 C632.00,504.35 628.41,508.57 625.21,509.50 C623.11,510.11 622.98,509.93 623.65,507.33 ZM 744.85 508.25 C744.76,507.29 744.62,505.83 744.54,505.00 C744.45,504.17 744.76,502.98 745.24,502.34 C745.74,501.65 745.64,500.90 744.98,500.49 C743.49,499.57 746.71,496.00 749.03,496.00 C752.54,496.00 753.53,492.30 751.62,486.33 C751.22,485.12 751.38,483.88 751.98,483.52 C752.56,483.16 752.80,482.49 752.52,482.04 C752.24,481.58 753.75,481.04 755.87,480.84 L 759.73 480.47 L 756.29 487.99 C754.40,492.12 751.44,498.76 749.72,502.75 C746.60,509.95 745.14,511.60 744.85,508.25 ZM 145.28 497.23 C142.41,490.78 136.28,477.12 131.65,466.88 C124.85,451.80 123.61,448.35 125.16,448.75 C127.00,449.23 129.16,452.10 128.90,453.71 C128.52,455.96 129.15,457.16 130.45,456.66 C131.48,456.26 131.72,456.59 131.29,457.80 C130.96,458.74 131.05,459.17 131.50,458.76 C132.79,457.59 135.17,461.76 134.93,464.77 C134.60,468.89 135.82,470.79 139.59,472.03 C142.47,472.98 143.02,473.65 143.12,476.33 C143.18,478.07 143.18,479.84 143.12,480.25 C143.05,480.66 143.39,481.00 143.87,481.00 C144.35,481.00 144.58,482.35 144.39,484.00 C144.20,485.65 144.51,487.00 145.08,487.00 C145.65,487.00 145.84,487.45 145.50,488.00 C144.96,488.87 146.99,489.48 149.25,489.12 C150.01,489.00 150.39,492.37 150.15,497.15 C150.07,498.61 150.64,501.00 151.40,502.46 C152.70,504.97 152.53,509.02 151.13,508.98 C150.79,508.97 148.15,503.68 145.28,497.23 ZM 80.32 503.63 C80.46,500.21 80.83,499.38 82.00,499.80 C83.17,500.22 83.11,499.90 81.75,498.34 C80.79,497.24 80.01,495.93 80.02,495.42 C80.02,494.91 80.47,495.17 81.00,496.00 C81.58,496.90 81.98,497.02 81.98,496.31 C81.99,495.65 81.55,494.84 81.00,494.50 C80.45,494.16 80.00,493.02 80.00,491.98 C80.00,489.74 83.61,487.34 84.22,489.17 C84.50,489.99 85.14,490.02 86.45,489.29 C87.86,488.50 88.36,486.88 88.56,482.49 C88.71,479.00 89.34,476.40 90.16,475.88 C91.15,475.25 91.18,475.03 90.25,475.02 C88.03,474.99 88.93,473.06 91.46,472.42 C94.91,471.55 95.73,470.21 96.30,464.50 C96.86,458.79 97.86,455.80 98.98,456.48 C100.27,457.28 104.00,453.39 104.00,451.25 C104.00,449.92 104.81,449.08 106.37,448.78 C108.62,448.35 108.40,449.07 102.33,462.41 C98.80,470.16 92.72,483.59 88.81,492.25 C84.91,500.91 81.36,508.00 80.93,508.00 C80.49,508.00 80.22,506.03 80.32,503.63 ZM 807.50 490.37 C804.20,482.89 801.53,476.49 801.57,476.14 C801.61,475.79 801.05,474.91 800.32,474.18 C799.16,473.02 798.79,471.57 799.09,469.36 C799.13,469.01 798.75,468.45 798.23,468.11 C797.71,467.78 796.35,465.36 795.20,462.75 C793.24,458.29 793.22,457.95 794.86,457.07 C797.62,455.60 799.49,457.50 799.64,461.95 C799.72,464.38 799.38,465.74 798.79,465.37 C798.20,465.01 798.23,465.56 798.87,466.75 C799.45,467.84 799.65,469.02 799.30,469.37 C798.95,469.72 799.27,470.00 800.00,470.00 C800.73,470.00 801.05,470.28 800.71,470.62 C799.83,471.51 802.57,474.00 804.43,474.00 C805.94,474.00 806.42,475.09 806.07,477.75 C805.99,478.44 806.40,479.00 807.01,479.00 C807.74,479.00 807.79,479.56 807.16,480.69 C805.83,483.06 807.80,486.91 810.72,487.64 C812.02,487.97 812.85,488.48 812.56,488.77 C812.27,489.06 812.75,489.83 813.63,490.47 C815.58,491.90 816.28,500.25 814.64,502.44 C813.71,503.68 812.38,501.43 807.50,490.37 ZM 927.68 490.25 C927.44,483.79 926.91,477.04 926.51,475.25 C925.91,472.62 926.08,472.00 927.39,472.00 C928.80,472.00 929.00,473.86 929.00,487.00 C929.00,495.25 928.80,502.00 928.56,502.00 C928.32,502.00 927.92,496.71 927.68,490.25 ZM 646.76 496.16 C646.02,492.86 640.92,486.82 638.00,485.80 C636.85,485.39 637.16,484.74 639.37,482.97 C649.05,475.21 645.89,456.62 634.00,451.38 C630.55,449.86 630.29,449.51 631.76,448.43 C634.03,446.77 637.15,448.08 642.82,453.07 C647.15,456.88 648.97,460.00 646.88,460.00 C646.28,460.00 646.28,460.66 646.88,461.78 C647.49,462.91 647.47,464.19 646.84,465.33 C646.16,466.54 646.20,467.53 646.97,468.46 C647.67,469.31 647.89,472.02 647.56,475.66 C646.49,487.17 646.48,487.99 647.29,488.26 C647.75,488.42 647.98,491.01 647.81,494.02 C647.53,499.05 647.44,499.22 646.76,496.16 ZM 599.63 493.48 C599.39,492.84 599.59,491.68 600.08,490.91 C601.37,488.87 601.20,482.23 599.80,479.68 C598.20,476.79 597.96,475.00 599.15,475.00 C599.68,475.00 599.87,474.60 599.57,474.11 C598.68,472.67 605.56,472.30 606.88,473.72 C607.81,474.72 607.79,475.00 606.79,475.02 C605.88,475.03 605.94,475.31 607.00,476.00 C608.33,476.86 608.33,476.97 607.00,477.00 C605.67,477.03 605.67,477.14 607.00,478.00 C608.14,478.74 607.72,478.97 605.25,478.98 L 602.00 479.00 L 602.00 485.50 C602.00,491.33 602.21,492.00 604.00,492.00 C607.10,492.00 606.36,493.72 603.04,494.21 C601.34,494.46 599.89,494.15 599.63,493.48 ZM 290.91 486.08 C292.00,485.38 291.78,485.08 289.91,484.73 C287.81,484.33 287.88,484.25 290.50,484.12 C292.83,484.00 293.16,483.75 292.00,483.00 C290.83,482.24 291.11,482.03 293.25,482.02 C296.67,482.00 296.38,482.04 299.88,481.03 C304.07,479.83 303.39,482.78 298.93,485.18 C295.48,487.03 288.10,487.86 290.91,486.08 ZM 320.00 474.83 C320.27,470.42 320.16,466.60 319.75,466.35 C319.34,466.09 319.00,465.44 319.00,464.91 C319.00,464.37 320.38,465.50 322.07,467.43 C324.34,470.01 324.90,471.35 324.23,472.55 C323.73,473.45 322.92,474.11 322.44,474.01 C321.95,473.92 321.37,474.40 321.15,475.06 C320.91,475.76 321.22,475.98 321.87,475.58 C323.71,474.44 323.20,478.87 321.25,480.96 C319.58,482.76 319.52,482.50 320.00,474.83 ZM 614.55 478.09 C614.24,477.58 614.55,476.94 615.24,476.66 C616.16,476.29 616.12,476.14 615.10,476.08 C614.16,476.03 614.46,475.34 616.00,474.00 C618.70,471.66 618.54,471.69 621.19,473.10 C622.80,473.96 623.07,473.92 622.46,472.93 C621.90,472.02 622.16,471.85 623.39,472.32 C624.41,472.71 624.86,472.58 624.49,471.99 C624.16,471.44 624.39,471.00 625.00,471.00 C625.63,471.00 625.79,470.46 625.36,469.77 C624.94,469.09 624.54,467.74 624.46,466.77 C624.30,464.52 623.79,464.04 621.00,463.50 C617.67,462.86 617.26,462.00 620.29,462.00 C629.21,462.00 633.05,471.67 626.25,477.02 C623.61,479.09 615.63,479.82 614.55,478.09 ZM 759.92 472.75 C759.87,470.96 759.74,468.20 759.63,466.61 C759.52,465.02 760.02,463.12 760.76,462.38 C761.50,461.65 761.96,460.25 761.80,459.27 C761.60,458.09 762.17,457.47 763.50,457.40 C767.32,457.20 767.58,456.98 767.82,453.75 C767.95,451.96 768.50,450.35 769.04,450.16 C769.57,449.98 769.73,449.38 769.40,448.83 C769.03,448.24 769.75,447.98 771.14,448.19 C772.44,448.39 773.38,449.12 773.23,449.83 C772.61,452.80 761.64,476.00 760.86,476.00 C760.39,476.00 759.96,474.54 759.92,472.75 ZM 301.00 472.00 C298.47,471.63 297.54,471.00 297.64,469.75 C297.71,468.77 297.32,468.30 296.72,468.67 C296.06,469.08 295.90,468.70 296.29,467.68 C296.76,466.46 295.86,465.55 292.71,464.10 L 288.50 462.17 L 291.78 462.08 C296.74,461.96 301.66,464.44 303.49,467.99 C305.60,472.06 305.24,472.63 301.00,472.00 ZM 416.71 470.58 C416.50,469.99 416.60,468.45 416.92,467.17 C417.24,465.89 417.28,461.70 416.99,457.86 C416.56,452.03 416.76,450.62 418.24,449.29 C419.91,447.78 420.00,448.07 420.00,454.85 L 420.00 462.00 L 431.94 462.00 C443.43,462.00 443.87,462.08 443.72,464.09 C443.57,466.06 443.04,466.17 435.03,465.97 C420.10,465.59 420.00,465.60 420.00,468.83 C420.00,471.62 417.53,472.94 416.71,470.58 ZM 481.00 469.00 L 481.00 466.00 L 469.00 466.00 C457.67,466.00 457.00,465.89 457.00,464.00 C457.00,462.11 457.67,462.00 469.00,462.00 L 481.00 462.00 L 481.00 455.00 C481.00,449.93 481.35,448.07 482.25,448.25 C484.18,448.64 485.93,452.16 485.96,455.75 C485.98,457.54 486.39,459.00 486.86,459.00 C487.60,459.00 487.72,463.04 487.00,463.75 C486.86,463.89 486.64,464.45 486.50,465.00 C486.36,465.55 486.14,466.34 486.01,466.75 C485.87,467.16 485.83,467.88 485.92,468.36 C486.16,469.69 483.91,472.00 482.38,472.00 C481.51,472.00 481.00,470.88 481.00,469.00 ZM 901.00 469.06 C901.00,466.21 902.16,464.76 904.75,464.37 C905.43,464.26 906.25,464.59 906.56,465.09 C906.86,465.59 906.42,466.00 905.56,466.00 C904.49,466.00 904.00,466.95 904.00,469.00 C904.00,471.00 903.50,472.00 902.50,472.00 C901.51,472.00 901.00,471.01 901.00,469.06 ZM 966.00 469.13 C966.00,466.56 965.58,466.19 962.11,465.63 C959.97,465.29 957.96,464.33 957.64,463.51 C957.18,462.30 957.96,462.00 961.53,462.00 L 966.00 462.00 L 966.00 455.42 C966.00,450.83 966.36,448.95 967.17,449.22 C968.50,449.67 969.07,453.84 967.91,454.56 C967.49,454.81 967.48,456.26 967.89,457.76 C968.30,459.27 968.54,462.75 968.41,465.50 C968.11,472.15 968.14,472.00 967.00,472.00 C966.45,472.00 966.00,470.71 966.00,469.13 ZM 927.00 464.00 C927.59,462.90 928.28,462.00 928.54,462.00 C928.79,462.00 929.00,462.90 929.00,464.00 C929.00,465.13 928.33,466.00 927.46,466.00 C926.24,466.00 926.15,465.60 927.00,464.00 ZM 271.00 463.55 C271.00,462.31 272.24,462.02 277.25,462.09 C283.68,462.17 282.93,462.86 274.75,464.39 C271.73,464.95 271.00,464.79 271.00,463.55 ZM 317.54 461.12 C315.98,456.22 308.68,451.00 301.11,449.37 L 295.50 448.17 L 300.75 447.96 C303.64,447.84 306.56,447.68 307.25,447.59 C307.94,447.50 309.73,448.31 311.24,449.39 C312.74,450.47 314.26,451.07 314.62,450.72 C315.42,449.91 319.05,456.72 319.44,459.77 C319.81,462.64 318.35,463.67 317.54,461.12 ZM 903.00 456.93 C903.00,455.80 902.51,453.95 901.90,452.82 C901.04,451.21 901.15,450.42 902.40,449.17 C903.87,447.71 904.00,448.05 904.00,453.29 C904.00,456.43 903.78,459.00 903.50,459.00 C903.22,459.00 903.00,458.07 903.00,456.93 Z" fill="rgb(251,251,251)"/>
</g>
</svg>